<svg xmlns="http://www.w3.org/2000/svg" xmlns:xlink="http://www.w3.org/1999/xlink" width="400" zoomAndPan="magnify" viewBox="0 0 300 299.999988" height="400" preserveAspectRatio="xMidYMid meet" version="1.0"><defs><g/><clipPath id="ac4a639080"><path d="M 25.4375 21 L 277.679688 21 L 277.679688 285.730469 L 25.4375 285.730469 Z M 25.4375 21 " clip-rule="nonzero"/></clipPath><clipPath id="0434794838"><path d="M 0.4375 0 L 252.679688 0 L 252.679688 264.730469 L 0.4375 264.730469 Z M 0.4375 0 " clip-rule="nonzero"/></clipPath><clipPath id="5557ebcd87"><rect x="0" width="253" y="0" height="265"/></clipPath><clipPath id="bff86be66c"><path d="M 25.4375 21.003906 L 277.4375 21.003906 L 277.4375 285.722656 L 25.4375 285.722656 Z M 25.4375 21.003906 " clip-rule="nonzero"/></clipPath><clipPath id="face224de7"><path d="M 63 175 L 87 175 L 87 203.851562 L 63 203.851562 Z M 63 175 " clip-rule="nonzero"/></clipPath><clipPath id="b86a9946b8"><path d="M 72 83.851562 L 78 83.851562 L 78 162 L 72 162 Z M 72 83.851562 " clip-rule="nonzero"/></clipPath><clipPath id="b1d061f6b4"><path d="M 38.917969 147 L 110.917969 147 L 110.917969 195 L 38.917969 195 Z M 38.917969 147 " clip-rule="nonzero"/></clipPath><clipPath id="3a2d4b9226"><path d="M 95.773438 113.851562 L 116.539062 113.851562 L 116.539062 203.851562 L 95.773438 203.851562 Z M 95.773438 113.851562 " clip-rule="nonzero"/></clipPath><clipPath id="484d703670"><path d="M 0.773438 0.851562 L 21.539062 0.851562 L 21.539062 90.851562 L 0.773438 90.851562 Z M 0.773438 0.851562 " clip-rule="nonzero"/></clipPath><clipPath id="bf77ab6416"><rect x="0" width="22" y="0" height="91"/></clipPath><clipPath id="7c20716935"><path d="M 38.917969 143.851562 L 55.183594 143.851562 L 55.183594 233.851562 L 38.917969 233.851562 Z M 38.917969 143.851562 " clip-rule="nonzero"/></clipPath><clipPath id="11ae0d8869"><path d="M 0.917969 0.851562 L 17.183594 0.851562 L 17.183594 90.851562 L 0.917969 90.851562 Z M 0.917969 0.851562 " clip-rule="nonzero"/></clipPath><clipPath id="50c163502a"><rect x="0" width="18" y="0" height="91"/></clipPath><clipPath id="097ffa1394"><path d="M 72.378906 70.648438 L 77.601562 70.648438 L 77.601562 103.648438 L 72.378906 103.648438 Z M 72.378906 70.648438 " clip-rule="nonzero"/></clipPath><clipPath id="2ee48da8cd"><path d="M 0.378906 0.648438 L 5.601562 0.648438 L 5.601562 33.648438 L 0.378906 33.648438 Z M 0.378906 0.648438 " clip-rule="nonzero"/></clipPath><clipPath id="b483a4a088"><rect x="0" width="6" y="0" height="34"/></clipPath><clipPath id="c9bd9e5ba7"><path d="M 94.101562 84 L 166.101562 84 L 166.101562 132 L 94.101562 132 Z M 94.101562 84 " clip-rule="nonzero"/></clipPath><clipPath id="f15c6d9b88"><path d="M 150.960938 71.511719 L 171.726562 71.511719 L 171.726562 161.511719 L 150.960938 161.511719 Z M 150.960938 71.511719 " clip-rule="nonzero"/></clipPath><clipPath id="4d318514ca"><path d="M 0.960938 0.511719 L 21.726562 0.511719 L 21.726562 90.511719 L 0.960938 90.511719 Z M 0.960938 0.511719 " clip-rule="nonzero"/></clipPath><clipPath id="3d8650255a"><rect x="0" width="22" y="0" height="91"/></clipPath><clipPath id="49620946c6"><path d="M 93.351562 44.398438 L 109.617188 44.398438 L 109.617188 134.398438 L 93.351562 134.398438 Z M 93.351562 44.398438 " clip-rule="nonzero"/></clipPath><clipPath id="04e3814077"><path d="M 0.351562 0.398438 L 16.617188 0.398438 L 16.617188 90.398438 L 0.351562 90.398438 Z M 0.351562 0.398438 " clip-rule="nonzero"/></clipPath><clipPath id="286549ad09"><rect x="0" width="17" y="0" height="91"/></clipPath><clipPath id="6696c0d0b5"><path d="M 72.378906 21.863281 L 77.601562 21.863281 L 77.601562 71.511719 L 72.378906 71.511719 Z M 72.378906 21.863281 " clip-rule="nonzero"/></clipPath><clipPath id="8615987da3"><path d="M 0.378906 0.863281 L 5.601562 0.863281 L 5.601562 50.511719 L 0.378906 50.511719 Z M 0.378906 0.863281 " clip-rule="nonzero"/></clipPath><clipPath id="3dd1754078"><rect x="0" width="6" y="0" height="51"/></clipPath><clipPath id="3b7ce58253"><path d="M 101.484375 193.355469 L 290.121094 193.355469 L 290.121094 300 L 101.484375 300 Z M 101.484375 193.355469 " clip-rule="nonzero"/></clipPath><clipPath id="2423b4ac82"><path d="M 0.484375 0.355469 L 189 0.355469 L 189 107 L 0.484375 107 Z M 0.484375 0.355469 " clip-rule="nonzero"/></clipPath><clipPath id="9e520d6398"><rect x="0" width="190" y="0" height="107"/></clipPath><clipPath id="b5a9c3bbec"><path d="M 212.917969 183.496094 L 294.246094 183.496094 L 294.246094 206.855469 L 212.917969 206.855469 Z M 212.917969 183.496094 " clip-rule="nonzero"/></clipPath><clipPath id="f9791f342a"><path d="M 0.917969 0.496094 L 82.246094 0.496094 L 82.246094 23.855469 L 0.917969 23.855469 Z M 0.917969 0.496094 " clip-rule="nonzero"/></clipPath><clipPath id="5d92fbdb96"><rect x="0" width="83" y="0" height="24"/></clipPath></defs><rect x="-30" width="360" fill="#ffffff" y="-29.999999" height="359.999986" fill-opacity="1"/><rect x="-30" width="360" fill="#ffffff" y="-29.999999" height="359.999986" fill-opacity="1"/><g clip-path="url(#ac4a639080)"><g transform="matrix(1, 0, 0, 1, 25, 21)"><g clip-path="url(#5557ebcd87)"><g clip-path="url(#0434794838)"><path fill="#ffffff" d="M 0.4375 0 L 252.679688 0 L 252.679688 265.050781 L 0.4375 265.050781 Z M 0.4375 0 " fill-opacity="1" fill-rule="nonzero"/></g></g></g></g><g clip-path="url(#bff86be66c)"><path stroke-linecap="butt" transform="matrix(0.75, 0, 0, 0.75, 25.43842, 21.002926)" fill="none" stroke-linejoin="miter" d="M -0.00122688 0.00130694 L 336.311301 0.00130694 L 336.311301 352.959669 L -0.00122688 352.959669 Z M -0.00122688 0.00130694 " stroke="#000000" stroke-width="8" stroke-opacity="1" stroke-miterlimit="4"/></g><g clip-path="url(#face224de7)"><path fill="#fce695" d="M 86.382812 189.453125 C 86.382812 197.386719 81.28125 203.816406 74.988281 203.816406 C 68.691406 203.816406 63.589844 197.386719 63.589844 189.453125 C 63.589844 181.519531 68.691406 175.089844 74.988281 175.089844 C 81.28125 175.089844 86.382812 181.519531 86.382812 189.453125 " fill-opacity="1" fill-rule="nonzero"/></g><g clip-path="url(#b86a9946b8)"><path fill="#000000" d="M 77.441406 83.910156 L 77.441406 161.269531 L 72.523438 161.269531 L 72.523438 83.910156 L 77.441406 83.910156 " fill-opacity="1" fill-rule="nonzero"/></g><g clip-path="url(#b1d061f6b4)"><path fill="#000000" d="M 84.121094 159.394531 L 84.121094 147.6875 L 65.851562 147.6875 L 65.851562 159.394531 C 50.359375 163.441406 38.921875 177.527344 38.921875 194.292969 L 111.050781 194.292969 C 111.050781 177.527344 99.613281 163.441406 84.121094 159.394531 " fill-opacity="1" fill-rule="nonzero"/></g><g clip-path="url(#3a2d4b9226)"><g transform="matrix(1, 0, 0, 1, 95, 113)"><g clip-path="url(#bf77ab6416)"><g clip-path="url(#484d703670)"><path fill="#ffffff" d="M 0.773438 0.851562 L 21.539062 0.851562 L 21.539062 90.8125 L 0.773438 90.8125 Z M 0.773438 0.851562 " fill-opacity="1" fill-rule="nonzero"/></g></g></g></g><g clip-path="url(#7c20716935)"><g transform="matrix(1, 0, 0, 1, 38, 143)"><g clip-path="url(#50c163502a)"><g clip-path="url(#11ae0d8869)"><path fill="#ffffff" d="M 0.917969 0.851562 L 17.183594 0.851562 L 17.183594 90.824219 L 0.917969 90.824219 Z M 0.917969 0.851562 " fill-opacity="1" fill-rule="nonzero"/></g></g></g></g><g clip-path="url(#097ffa1394)"><g transform="matrix(1, 0, 0, 1, 72, 70)"><g clip-path="url(#b483a4a088)"><g clip-path="url(#2ee48da8cd)"><path fill="#000000" d="M 0.378906 0.648438 L 5.601562 0.648438 L 5.601562 33.652344 L 0.378906 33.652344 Z M 0.378906 0.648438 " fill-opacity="1" fill-rule="nonzero"/></g></g></g></g><path fill="#fce695" d="M 141.570312 126.601562 C 141.570312 134.535156 136.464844 140.964844 130.171875 140.964844 C 123.878906 140.964844 118.777344 134.535156 118.777344 126.601562 C 118.777344 118.667969 123.878906 112.238281 130.171875 112.238281 C 136.464844 112.238281 141.570312 118.667969 141.570312 126.601562 " fill-opacity="1" fill-rule="nonzero"/><path fill="#000000" d="M 132.628906 21.058594 L 132.628906 98.421875 L 127.710938 98.421875 L 127.710938 21.058594 L 132.628906 21.058594 " fill-opacity="1" fill-rule="nonzero"/><g clip-path="url(#c9bd9e5ba7)"><path fill="#000000" d="M 139.304688 96.542969 L 139.304688 84.835938 L 121.039062 84.835938 L 121.039062 96.542969 C 105.542969 100.589844 94.109375 114.675781 94.109375 131.441406 L 166.238281 131.441406 C 166.238281 114.675781 154.800781 100.589844 139.304688 96.542969 " fill-opacity="1" fill-rule="nonzero"/></g><g clip-path="url(#f15c6d9b88)"><g transform="matrix(1, 0, 0, 1, 150, 71)"><g clip-path="url(#3d8650255a)"><g clip-path="url(#4d318514ca)"><path fill="#ffffff" d="M 0.960938 0.511719 L 21.726562 0.511719 L 21.726562 90.472656 L 0.960938 90.472656 Z M 0.960938 0.511719 " fill-opacity="1" fill-rule="nonzero"/></g></g></g></g><g clip-path="url(#49620946c6)"><g transform="matrix(1, 0, 0, 1, 93, 44)"><g clip-path="url(#286549ad09)"><g clip-path="url(#04e3814077)"><path fill="#ffffff" d="M 0.351562 0.398438 L 16.617188 0.398438 L 16.617188 90.371094 L 0.351562 90.371094 Z M 0.351562 0.398438 " fill-opacity="1" fill-rule="nonzero"/></g></g></g></g><g clip-path="url(#6696c0d0b5)"><g transform="matrix(1, 0, 0, 1, 72, 21)"><g clip-path="url(#3dd1754078)"><g clip-path="url(#8615987da3)"><path fill="#000000" d="M 0.378906 0.863281 L 5.601562 0.863281 L 5.601562 50.511719 L 0.378906 50.511719 Z M 0.378906 0.863281 " fill-opacity="1" fill-rule="nonzero"/></g></g></g></g><g clip-path="url(#3b7ce58253)"><g transform="matrix(1, 0, 0, 1, 101, 193)"><g clip-path="url(#9e520d6398)"><g clip-path="url(#2423b4ac82)"><path fill="#ffffff" d="M 0.484375 0.355469 L 188.824219 0.355469 L 188.824219 158.953125 L 0.484375 158.953125 Z M 0.484375 0.355469 " fill-opacity="1" fill-rule="nonzero"/></g></g></g></g><g clip-path="url(#b5a9c3bbec)"><g transform="matrix(1, 0, 0, 1, 212, 183)"><g clip-path="url(#5d92fbdb96)"><g clip-path="url(#f9791f342a)"><path fill="#ffffff" d="M 0.917969 0.496094 L 82.214844 0.496094 L 82.214844 23.855469 L 0.917969 23.855469 Z M 0.917969 0.496094 " fill-opacity="1" fill-rule="nonzero"/></g></g></g></g><g fill="#000000" fill-opacity="1"><g transform="translate(95.610101, 218.395984)"><g><path d="M 11.375 -9.15625 L 11.375 -14.671875 L 14.265625 -14.671875 L 14.265625 0 L 11.375 0 L 11.375 -6.6875 L 4.8125 -6.6875 L 4.8125 0 L 1.90625 0 L 1.90625 -14.671875 L 4.8125 -14.671875 L 4.8125 -9.15625 Z M 11.375 -9.15625 "/></g></g></g><g fill="#000000" fill-opacity="1"><g transform="translate(120.966075, 218.395984)"><g><path d="M 14.078125 0 L 11.03125 0 L 9.921875 -3.375 L 4.296875 -3.375 L 3.203125 0 L 0.21875 0 L 5.28125 -14.671875 L 9.015625 -14.671875 Z M 6.96875 -11.609375 L 5.09375 -5.8125 L 9.125 -5.8125 L 7.21875 -11.609375 Z M 6.96875 -11.609375 "/></g></g></g><g fill="#000000" fill-opacity="1"><g transform="translate(144.437345, 218.395984)"><g><path d="M 1.90625 0 L 1.90625 -14.671875 L 7.796875 -14.671875 C 9.316406 -14.671875 10.460938 -14.320312 11.234375 -13.625 C 12.003906 -12.925781 12.390625 -11.957031 12.390625 -10.71875 C 12.390625 -9.832031 12.160156 -9.101562 11.703125 -8.53125 C 11.253906 -7.96875 10.582031 -7.535156 9.6875 -7.234375 L 9.6875 -7.015625 C 10.15625 -6.816406 10.53125 -6.519531 10.8125 -6.125 C 11.09375 -5.726562 11.363281 -5.144531 11.625 -4.375 L 13.078125 0 L 10.109375 0 L 8.671875 -4.390625 C 8.523438 -4.828125 8.359375 -5.164062 8.171875 -5.40625 C 7.984375 -5.65625 7.75 -5.832031 7.46875 -5.9375 C 7.1875 -6.050781 6.816406 -6.109375 6.359375 -6.109375 L 4.8125 -6.109375 L 4.8125 0 Z M 7.4375 -8.40625 C 8.84375 -8.40625 9.546875 -9.0625 9.546875 -10.375 C 9.546875 -11.707031 8.84375 -12.375 7.4375 -12.375 L 4.8125 -12.375 L 4.8125 -8.40625 Z M 7.4375 -8.40625 "/></g></g></g><g fill="#000000" fill-opacity="1"><g transform="translate(167.327163, 218.395984)"><g><path d="M 7.1875 -14.671875 C 9.5625 -14.671875 11.375 -14.050781 12.625 -12.8125 C 13.882812 -11.582031 14.515625 -9.753906 14.515625 -7.328125 C 14.515625 -4.910156 13.882812 -3.082031 12.625 -1.84375 C 11.375 -0.613281 9.5625 0 7.1875 0 L 1.90625 0 L 1.90625 -14.671875 Z M 7.015625 -2.4375 C 8.523438 -2.4375 9.65625 -2.820312 10.40625 -3.59375 C 11.15625 -4.363281 11.53125 -5.609375 11.53125 -7.328125 C 11.53125 -9.046875 11.15625 -10.289062 10.40625 -11.0625 C 9.65625 -11.84375 8.523438 -12.234375 7.015625 -12.234375 L 4.8125 -12.234375 L 4.8125 -2.4375 Z M 7.015625 -2.4375 "/></g></g></g><g fill="#000000" fill-opacity="1"><g transform="translate(192.141763, 218.395984)"><g><path d="M 7 0 L 3.765625 0 L 0.40625 -14.671875 L 3.296875 -14.671875 L 5.515625 -4.359375 L 5.765625 -4.359375 L 8.390625 -14.671875 L 10.859375 -14.671875 L 13.546875 -4.359375 L 13.796875 -4.359375 L 16.015625 -14.671875 L 18.8125 -14.671875 L 15.453125 0 L 12.203125 0 L 9.640625 -9.453125 L 9.4375 -9.453125 Z M 7 0 "/></g></g></g><g fill="#000000" fill-opacity="1"><g transform="translate(220.18426, 218.395984)"><g><path d="M 14.078125 0 L 11.03125 0 L 9.921875 -3.375 L 4.296875 -3.375 L 3.203125 0 L 0.21875 0 L 5.28125 -14.671875 L 9.015625 -14.671875 Z M 6.96875 -11.609375 L 5.09375 -5.8125 L 9.125 -5.8125 L 7.21875 -11.609375 Z M 6.96875 -11.609375 "/></g></g></g><g fill="#000000" fill-opacity="1"><g transform="translate(243.65553, 218.395984)"><g><path d="M 1.90625 0 L 1.90625 -14.671875 L 7.796875 -14.671875 C 9.316406 -14.671875 10.460938 -14.320312 11.234375 -13.625 C 12.003906 -12.925781 12.390625 -11.957031 12.390625 -10.71875 C 12.390625 -9.832031 12.160156 -9.101562 11.703125 -8.53125 C 11.253906 -7.96875 10.582031 -7.535156 9.6875 -7.234375 L 9.6875 -7.015625 C 10.15625 -6.816406 10.53125 -6.519531 10.8125 -6.125 C 11.09375 -5.726562 11.363281 -5.144531 11.625 -4.375 L 13.078125 0 L 10.109375 0 L 8.671875 -4.390625 C 8.523438 -4.828125 8.359375 -5.164062 8.171875 -5.40625 C 7.984375 -5.65625 7.75 -5.832031 7.46875 -5.9375 C 7.1875 -6.050781 6.816406 -6.109375 6.359375 -6.109375 L 4.8125 -6.109375 L 4.8125 0 Z M 7.4375 -8.40625 C 8.84375 -8.40625 9.546875 -9.0625 9.546875 -10.375 C 9.546875 -11.707031 8.84375 -12.375 7.4375 -12.375 L 4.8125 -12.375 L 4.8125 -8.40625 Z M 7.4375 -8.40625 "/></g></g></g><g fill="#000000" fill-opacity="1"><g transform="translate(266.545348, 218.395984)"><g><path d="M 4.8125 -6.4375 L 4.8125 -2.421875 L 11.8125 -2.421875 L 11.8125 0 L 1.90625 0 L 1.90625 -14.671875 L 11.640625 -14.671875 L 11.640625 -12.234375 L 4.8125 -12.234375 L 4.8125 -8.8125 L 10.78125 -8.8125 L 10.78125 -6.4375 Z M 4.8125 -6.4375 "/></g></g></g><g fill="#000000" fill-opacity="1"><g transform="translate(288.336648, 218.395984)"><g/></g></g><g fill="#000000" fill-opacity="1"><g transform="translate(95.610101, 246.895981)"><g><path d="M 6 0.203125 C 4.9375 0.203125 4.003906 0.0234375 3.203125 -0.328125 C 2.410156 -0.691406 1.796875 -1.207031 1.359375 -1.875 C 0.929688 -2.550781 0.71875 -3.335938 0.71875 -4.234375 C 0.71875 -5.191406 0.957031 -5.988281 1.4375 -6.625 C 1.925781 -7.269531 2.65625 -7.796875 3.625 -8.203125 L 3.640625 -8.421875 C 3.203125 -8.960938 2.882812 -9.460938 2.6875 -9.921875 C 2.488281 -10.378906 2.390625 -10.878906 2.390625 -11.421875 C 2.390625 -12.097656 2.550781 -12.695312 2.875 -13.21875 C 3.195312 -13.738281 3.664062 -14.144531 4.28125 -14.4375 C 4.894531 -14.726562 5.625 -14.875 6.46875 -14.875 C 7.269531 -14.875 7.953125 -14.738281 8.515625 -14.46875 C 9.085938 -14.207031 9.523438 -13.835938 9.828125 -13.359375 C 10.128906 -12.890625 10.28125 -12.34375 10.28125 -11.71875 C 10.28125 -10.882812 10.03125 -10.160156 9.53125 -9.546875 C 9.03125 -8.929688 8.257812 -8.421875 7.21875 -8.015625 L 7.1875 -7.8125 L 9.90625 -4.21875 C 10.0625 -4.570312 10.171875 -4.972656 10.234375 -5.421875 C 10.296875 -5.867188 10.328125 -6.378906 10.328125 -6.953125 L 10.328125 -7.46875 L 12.671875 -7.46875 C 12.671875 -5.40625 12.265625 -3.738281 11.453125 -2.46875 C 11.617188 -2.332031 11.765625 -2.238281 11.890625 -2.1875 C 12.015625 -2.132812 12.148438 -2.109375 12.296875 -2.109375 C 12.441406 -2.109375 12.554688 -2.113281 12.640625 -2.125 C 12.722656 -2.132812 12.820312 -2.160156 12.9375 -2.203125 L 13.078125 -2.15625 L 13.4375 -0.140625 C 13.3125 -0.0546875 13.128906 0.00390625 12.890625 0.046875 C 12.660156 0.0976562 12.398438 0.125 12.109375 0.125 C 11.617188 0.125 11.1875 0.046875 10.8125 -0.109375 C 10.445312 -0.265625 10.097656 -0.515625 9.765625 -0.859375 L 9.546875 -0.859375 C 8.722656 -0.148438 7.539062 0.203125 6 0.203125 Z M 5.984375 -9.40625 C 6.609375 -9.707031 7.0625 -10.015625 7.34375 -10.328125 C 7.625 -10.648438 7.765625 -11.050781 7.765625 -11.53125 C 7.765625 -11.945312 7.644531 -12.265625 7.40625 -12.484375 C 7.164062 -12.710938 6.84375 -12.828125 6.4375 -12.828125 C 6.019531 -12.828125 5.6875 -12.703125 5.4375 -12.453125 C 5.1875 -12.210938 5.0625 -11.882812 5.0625 -11.46875 C 5.0625 -11.144531 5.125 -10.84375 5.25 -10.5625 C 5.382812 -10.28125 5.628906 -9.894531 5.984375 -9.40625 Z M 6.34375 -2.171875 C 6.988281 -2.171875 7.539062 -2.296875 8 -2.546875 L 4.734375 -6.703125 C 4.347656 -6.453125 4.0625 -6.148438 3.875 -5.796875 C 3.695312 -5.453125 3.609375 -5.046875 3.609375 -4.578125 C 3.609375 -4.097656 3.71875 -3.675781 3.9375 -3.3125 C 4.164062 -2.945312 4.484375 -2.664062 4.890625 -2.46875 C 5.304688 -2.269531 5.789062 -2.171875 6.34375 -2.171875 Z M 6.34375 -2.171875 "/></g></g></g><g fill="#000000" fill-opacity="1"><g transform="translate(118.489894, 246.895981)"><g><path d="M 4.8125 0 L 1.90625 0 L 1.90625 -14.671875 L 4.8125 -14.671875 Z M 4.8125 0 "/></g></g></g><g fill="#000000" fill-opacity="1"><g transform="translate(134.392271, 246.895981)"><g><path d="M 4.71875 0 L 1.90625 0 L 1.90625 -14.671875 L 5.234375 -14.671875 L 11.109375 -5.21875 L 11.375 -5.25 L 11.375 -14.671875 L 14.171875 -14.671875 L 14.171875 0 L 11.203125 0 L 4.96875 -10.09375 L 4.71875 -10.046875 Z M 4.71875 0 "/></g></g></g><g fill="#000000" fill-opacity="1"><g transform="translate(159.647995, 246.895981)"><g><path d="M 11.765625 -14.671875 L 11.765625 -12.234375 L 7.53125 -12.234375 L 7.53125 0 L 4.640625 0 L 4.640625 -12.234375 L 0.40625 -12.234375 L 0.40625 -14.671875 Z M 11.765625 -14.671875 "/></g></g></g><g fill="#000000" fill-opacity="1"><g transform="translate(180.983935, 246.895981)"><g><path d="M 4.8125 -6.4375 L 4.8125 -2.421875 L 11.8125 -2.421875 L 11.8125 0 L 1.90625 0 L 1.90625 -14.671875 L 11.640625 -14.671875 L 11.640625 -12.234375 L 4.8125 -12.234375 L 4.8125 -8.8125 L 10.78125 -8.8125 L 10.78125 -6.4375 Z M 4.8125 -6.4375 "/></g></g></g><g fill="#000000" fill-opacity="1"><g transform="translate(202.771, 246.895981)"><g><path d="M 1.90625 0 L 1.90625 -14.671875 L 7.796875 -14.671875 C 9.316406 -14.671875 10.460938 -14.320312 11.234375 -13.625 C 12.003906 -12.925781 12.390625 -11.957031 12.390625 -10.71875 C 12.390625 -9.832031 12.160156 -9.101562 11.703125 -8.53125 C 11.253906 -7.96875 10.582031 -7.535156 9.6875 -7.234375 L 9.6875 -7.015625 C 10.15625 -6.816406 10.53125 -6.519531 10.8125 -6.125 C 11.09375 -5.726562 11.363281 -5.144531 11.625 -4.375 L 13.078125 0 L 10.109375 0 L 8.671875 -4.390625 C 8.523438 -4.828125 8.359375 -5.164062 8.171875 -5.40625 C 7.984375 -5.65625 7.75 -5.832031 7.46875 -5.9375 C 7.1875 -6.050781 6.816406 -6.109375 6.359375 -6.109375 L 4.8125 -6.109375 L 4.8125 0 Z M 7.4375 -8.40625 C 8.84375 -8.40625 9.546875 -9.0625 9.546875 -10.375 C 9.546875 -11.707031 8.84375 -12.375 7.4375 -12.375 L 4.8125 -12.375 L 4.8125 -8.40625 Z M 7.4375 -8.40625 "/></g></g></g><g fill="#000000" fill-opacity="1"><g transform="translate(225.660818, 246.895981)"><g><path d="M 4.8125 0 L 1.90625 0 L 1.90625 -14.671875 L 4.8125 -14.671875 Z M 4.8125 0 "/></g></g></g><g fill="#000000" fill-opacity="1"><g transform="translate(241.563195, 246.895981)"><g><path d="M 8 0.203125 C 6.65625 0.203125 5.46875 -0.0664062 4.4375 -0.609375 C 3.414062 -1.160156 2.613281 -2 2.03125 -3.125 C 1.445312 -4.25 1.15625 -5.648438 1.15625 -7.328125 C 1.15625 -9.015625 1.445312 -10.421875 2.03125 -11.546875 C 2.613281 -12.671875 3.414062 -13.503906 4.4375 -14.046875 C 5.46875 -14.597656 6.65625 -14.875 8 -14.875 C 9.34375 -14.875 10.523438 -14.601562 11.546875 -14.0625 C 12.566406 -13.519531 13.363281 -12.679688 13.9375 -11.546875 C 14.519531 -10.421875 14.8125 -9.015625 14.8125 -7.328125 C 14.8125 -5.648438 14.519531 -4.242188 13.9375 -3.109375 C 13.363281 -1.984375 12.566406 -1.148438 11.546875 -0.609375 C 10.523438 -0.0664062 9.34375 0.203125 8 0.203125 Z M 8 -2.3125 C 9.238281 -2.3125 10.1875 -2.707031 10.84375 -3.5 C 11.5 -4.300781 11.828125 -5.578125 11.828125 -7.328125 C 11.828125 -9.085938 11.5 -10.367188 10.84375 -11.171875 C 10.1875 -11.972656 9.238281 -12.375 8 -12.375 C 6.75 -12.375 5.789062 -11.972656 5.125 -11.171875 C 4.46875 -10.367188 4.140625 -9.085938 4.140625 -7.328125 C 4.140625 -5.578125 4.46875 -4.300781 5.125 -3.5 C 5.789062 -2.707031 6.75 -2.3125 8 -2.3125 Z M 8 -2.3125 "/></g></g></g><g fill="#000000" fill-opacity="1"><g transform="translate(266.718669, 246.895981)"><g><path d="M 1.90625 0 L 1.90625 -14.671875 L 7.796875 -14.671875 C 9.316406 -14.671875 10.460938 -14.320312 11.234375 -13.625 C 12.003906 -12.925781 12.390625 -11.957031 12.390625 -10.71875 C 12.390625 -9.832031 12.160156 -9.101562 11.703125 -8.53125 C 11.253906 -7.96875 10.582031 -7.535156 9.6875 -7.234375 L 9.6875 -7.015625 C 10.15625 -6.816406 10.53125 -6.519531 10.8125 -6.125 C 11.09375 -5.726562 11.363281 -5.144531 11.625 -4.375 L 13.078125 0 L 10.109375 0 L 8.671875 -4.390625 C 8.523438 -4.828125 8.359375 -5.164062 8.171875 -5.40625 C 7.984375 -5.65625 7.75 -5.832031 7.46875 -5.9375 C 7.1875 -6.050781 6.816406 -6.109375 6.359375 -6.109375 L 4.8125 -6.109375 L 4.8125 0 Z M 7.4375 -8.40625 C 8.84375 -8.40625 9.546875 -9.0625 9.546875 -10.375 C 9.546875 -11.707031 8.84375 -12.375 7.4375 -12.375 L 4.8125 -12.375 L 4.8125 -8.40625 Z M 7.4375 -8.40625 "/></g></g></g><g fill="#000000" fill-opacity="1"><g transform="translate(289.613996, 246.895981)"><g/></g></g><g fill="#000000" fill-opacity="1"><g transform="translate(103.157143, 271.28608)"><g/></g></g><g fill="#000000" fill-opacity="1"><g transform="translate(117.184841, 271.28608)"><g/></g></g><g fill="#000000" fill-opacity="1"><g transform="translate(131.212538, 271.28608)"><g/></g></g><g fill="#000000" fill-opacity="1"><g transform="translate(145.240235, 271.28608)"><g/></g></g><g fill="#000000" fill-opacity="1"><g transform="translate(159.278232, 271.28608)"><g><path d="M 6.5 0.203125 C 5.476562 0.203125 4.570312 0.078125 3.78125 -0.171875 C 2.988281 -0.421875 2.328125 -0.75 1.796875 -1.15625 C 1.273438 -1.5625 0.875 -2.007812 0.59375 -2.5 L 2.1875 -4.4375 L 2.4375 -4.4375 C 2.875 -3.789062 3.429688 -3.269531 4.109375 -2.875 C 4.796875 -2.488281 5.59375 -2.296875 6.5 -2.296875 C 7.28125 -2.296875 7.863281 -2.457031 8.25 -2.78125 C 8.644531 -3.113281 8.84375 -3.566406 8.84375 -4.140625 C 8.84375 -4.492188 8.78125 -4.785156 8.65625 -5.015625 C 8.53125 -5.253906 8.316406 -5.457031 8.015625 -5.625 C 7.722656 -5.789062 7.328125 -5.929688 6.828125 -6.046875 L 4.953125 -6.484375 C 3.628906 -6.785156 2.644531 -7.285156 2 -7.984375 C 1.351562 -8.679688 1.03125 -9.585938 1.03125 -10.703125 C 1.03125 -11.535156 1.238281 -12.265625 1.65625 -12.890625 C 2.070312 -13.515625 2.675781 -14 3.46875 -14.34375 C 4.257812 -14.695312 5.207031 -14.875 6.3125 -14.875 C 7.4375 -14.875 8.398438 -14.722656 9.203125 -14.421875 C 10.015625 -14.128906 10.695312 -13.675781 11.25 -13.0625 L 9.828125 -11.09375 L 9.578125 -11.09375 C 9.160156 -11.53125 8.679688 -11.859375 8.140625 -12.078125 C 7.609375 -12.296875 7 -12.40625 6.3125 -12.40625 C 5.507812 -12.40625 4.898438 -12.265625 4.484375 -11.984375 C 4.078125 -11.703125 3.875 -11.3125 3.875 -10.8125 C 3.875 -10.351562 4.019531 -9.984375 4.3125 -9.703125 C 4.601562 -9.429688 5.101562 -9.21875 5.8125 -9.0625 L 7.75 -8.671875 C 9.164062 -8.367188 10.195312 -7.859375 10.84375 -7.140625 C 11.488281 -6.421875 11.8125 -5.484375 11.8125 -4.328125 C 11.8125 -3.410156 11.613281 -2.609375 11.21875 -1.921875 C 10.820312 -1.242188 10.222656 -0.71875 9.421875 -0.34375 C 8.628906 0.0195312 7.65625 0.203125 6.5 0.203125 Z M 6.5 0.203125 "/></g></g></g><g fill="#000000" fill-opacity="1"><g transform="translate(180.884756, 271.28608)"><g><path d="M 11.765625 -14.671875 L 11.765625 -12.234375 L 7.53125 -12.234375 L 7.53125 0 L 4.640625 0 L 4.640625 -12.234375 L 0.40625 -12.234375 L 0.40625 -14.671875 Z M 11.765625 -14.671875 "/></g></g></g><g fill="#000000" fill-opacity="1"><g transform="translate(202.220696, 271.28608)"><g><path d="M 7.78125 0.203125 C 5.757812 0.203125 4.257812 -0.273438 3.28125 -1.234375 C 2.300781 -2.191406 1.8125 -3.613281 1.8125 -5.5 L 1.8125 -14.671875 L 4.65625 -14.671875 L 4.65625 -5.515625 C 4.65625 -4.441406 4.910156 -3.640625 5.421875 -3.109375 C 5.941406 -2.578125 6.726562 -2.3125 7.78125 -2.3125 C 9.851562 -2.3125 10.890625 -3.378906 10.890625 -5.515625 L 10.890625 -14.671875 L 13.734375 -14.671875 L 13.734375 -5.5 C 13.734375 -3.613281 13.242188 -2.191406 12.265625 -1.234375 C 11.296875 -0.273438 9.800781 0.203125 7.78125 0.203125 Z M 7.78125 0.203125 "/></g></g></g><g fill="#000000" fill-opacity="1"><g transform="translate(226.945094, 271.28608)"><g><path d="M 7.1875 -14.671875 C 9.5625 -14.671875 11.375 -14.050781 12.625 -12.8125 C 13.882812 -11.582031 14.515625 -9.753906 14.515625 -7.328125 C 14.515625 -4.910156 13.882812 -3.082031 12.625 -1.84375 C 11.375 -0.613281 9.5625 0 7.1875 0 L 1.90625 0 L 1.90625 -14.671875 Z M 7.015625 -2.4375 C 8.523438 -2.4375 9.65625 -2.820312 10.40625 -3.59375 C 11.15625 -4.363281 11.53125 -5.609375 11.53125 -7.328125 C 11.53125 -9.046875 11.15625 -10.289062 10.40625 -11.0625 C 9.65625 -11.84375 8.523438 -12.234375 7.015625 -12.234375 L 4.8125 -12.234375 L 4.8125 -2.4375 Z M 7.015625 -2.4375 "/></g></g></g><g fill="#000000" fill-opacity="1"><g transform="translate(251.799816, 271.28608)"><g><path d="M 4.8125 0 L 1.90625 0 L 1.90625 -14.671875 L 4.8125 -14.671875 Z M 4.8125 0 "/></g></g></g><g fill="#000000" fill-opacity="1"><g transform="translate(267.702193, 271.28608)"><g><path d="M 8 0.203125 C 6.65625 0.203125 5.46875 -0.0664062 4.4375 -0.609375 C 3.414062 -1.160156 2.613281 -2 2.03125 -3.125 C 1.445312 -4.25 1.15625 -5.648438 1.15625 -7.328125 C 1.15625 -9.015625 1.445312 -10.421875 2.03125 -11.546875 C 2.613281 -12.671875 3.414062 -13.503906 4.4375 -14.046875 C 5.46875 -14.597656 6.65625 -14.875 8 -14.875 C 9.34375 -14.875 10.523438 -14.601562 11.546875 -14.0625 C 12.566406 -13.519531 13.363281 -12.679688 13.9375 -11.546875 C 14.519531 -10.421875 14.8125 -9.015625 14.8125 -7.328125 C 14.8125 -5.648438 14.519531 -4.242188 13.9375 -3.109375 C 13.363281 -1.984375 12.566406 -1.148438 11.546875 -0.609375 C 10.523438 -0.0664062 9.34375 0.203125 8 0.203125 Z M 8 -2.3125 C 9.238281 -2.3125 10.1875 -2.707031 10.84375 -3.5 C 11.5 -4.300781 11.828125 -5.578125 11.828125 -7.328125 C 11.828125 -9.085938 11.5 -10.367188 10.84375 -11.171875 C 10.1875 -11.972656 9.238281 -12.375 8 -12.375 C 6.75 -12.375 5.789062 -11.972656 5.125 -11.171875 C 4.46875 -10.367188 4.140625 -9.085938 4.140625 -7.328125 C 4.140625 -5.578125 4.46875 -4.300781 5.125 -3.5 C 5.789062 -2.707031 6.75 -2.3125 8 -2.3125 Z M 8 -2.3125 "/></g></g></g><g fill="#000000" fill-opacity="1"><g transform="translate(144.351307, 285.728765)"><g><path d="M 3.046875 -6.421875 C 3.703125 -6.421875 4.257812 -6.300781 4.71875 -6.0625 C 5.1875 -5.832031 5.546875 -5.476562 5.796875 -5 C 6.054688 -4.53125 6.1875 -3.9375 6.1875 -3.21875 C 6.1875 -2.488281 6.054688 -1.882812 5.796875 -1.40625 C 5.546875 -0.9375 5.1875 -0.582031 4.71875 -0.34375 C 4.257812 -0.113281 3.703125 0 3.046875 0 L 0.96875 0 L 0.96875 -6.421875 Z M 2.96875 -0.640625 C 3.507812 -0.640625 3.953125 -0.722656 4.296875 -0.890625 C 4.648438 -1.054688 4.914062 -1.328125 5.09375 -1.703125 C 5.28125 -2.085938 5.375 -2.59375 5.375 -3.21875 C 5.375 -3.84375 5.28125 -4.34375 5.09375 -4.71875 C 4.914062 -5.09375 4.648438 -5.363281 4.296875 -5.53125 C 3.953125 -5.695312 3.507812 -5.78125 2.96875 -5.78125 L 1.734375 -5.78125 L 1.734375 -0.640625 Z M 2.96875 -0.640625 "/></g></g></g><g fill="#000000" fill-opacity="1"><g transform="translate(154.447398, 285.728765)"><g><path d="M 0.96875 0 L 0.96875 -6.421875 L 3.3125 -6.421875 C 3.738281 -6.421875 4.097656 -6.347656 4.390625 -6.203125 C 4.679688 -6.066406 4.898438 -5.867188 5.046875 -5.609375 C 5.191406 -5.347656 5.265625 -5.039062 5.265625 -4.6875 C 5.265625 -4.289062 5.164062 -3.960938 4.96875 -3.703125 C 4.769531 -3.441406 4.457031 -3.25 4.03125 -3.125 L 4.03125 -3.03125 C 4.238281 -2.945312 4.410156 -2.816406 4.546875 -2.640625 C 4.679688 -2.460938 4.800781 -2.203125 4.90625 -1.859375 L 5.5 0 L 4.734375 0 L 4.09375 -1.96875 C 4.007812 -2.195312 3.914062 -2.375 3.8125 -2.5 C 3.71875 -2.632812 3.59375 -2.734375 3.4375 -2.796875 C 3.289062 -2.859375 3.097656 -2.890625 2.859375 -2.890625 L 1.734375 -2.890625 L 1.734375 0 Z M 3.28125 -3.53125 C 3.6875 -3.53125 3.988281 -3.617188 4.1875 -3.796875 C 4.382812 -3.984375 4.484375 -4.269531 4.484375 -4.65625 C 4.484375 -5.03125 4.382812 -5.3125 4.1875 -5.5 C 3.988281 -5.6875 3.6875 -5.78125 3.28125 -5.78125 L 1.734375 -5.78125 L 1.734375 -3.53125 Z M 3.28125 -3.53125 "/></g></g></g><g fill="#000000" fill-opacity="1"><g transform="translate(163.664583, 285.728765)"><g><path d="M 1.734375 -3.03125 L 1.734375 -0.625 L 5 -0.625 L 5 0 L 0.96875 0 L 0.96875 -6.421875 L 4.9375 -6.421875 L 4.9375 -5.796875 L 1.734375 -5.796875 L 1.734375 -3.65625 L 4.546875 -3.65625 L 4.546875 -3.03125 Z M 1.734375 -3.03125 "/></g></g></g><g fill="#000000" fill-opacity="1"><g transform="translate(172.358819, 285.728765)"><g><path d="M 5.78125 0 L 4.96875 0 L 4.375 -1.765625 L 1.640625 -1.765625 L 1.046875 0 L 0.25 0 L 2.5 -6.421875 L 3.546875 -6.421875 Z M 2.953125 -5.640625 L 1.859375 -2.390625 L 4.171875 -2.390625 L 3.0625 -5.640625 Z M 2.953125 -5.640625 "/></g></g></g><g fill="#000000" fill-opacity="1"><g transform="translate(181.663895, 285.728765)"><g><path d="M 1.671875 0 L 0.96875 0 L 0.96875 -6.421875 L 2.09375 -6.421875 L 4.03125 -0.984375 L 4.125 -0.984375 L 6.078125 -6.421875 L 7.15625 -6.421875 L 7.15625 0 L 6.4375 0 L 6.4375 -5.25 L 6.328125 -5.265625 L 4.4375 0 L 3.6875 0 L 1.78125 -5.265625 L 1.671875 -5.25 Z M 1.671875 0 "/></g></g></g><g fill="#000000" fill-opacity="1"><g transform="translate(193.065162, 285.728765)"><g/></g></g><g fill="#000000" fill-opacity="1"><g transform="translate(198.538207, 285.728765)"><g><path d="M 3.546875 0.09375 C 2.984375 0.09375 2.484375 -0.0351562 2.046875 -0.296875 C 1.609375 -0.554688 1.265625 -0.929688 1.015625 -1.421875 C 0.765625 -1.921875 0.640625 -2.519531 0.640625 -3.21875 C 0.640625 -3.90625 0.765625 -4.5 1.015625 -5 C 1.265625 -5.5 1.609375 -5.875 2.046875 -6.125 C 2.484375 -6.382812 2.984375 -6.515625 3.546875 -6.515625 C 4.148438 -6.515625 4.648438 -6.398438 5.046875 -6.171875 C 5.441406 -5.953125 5.726562 -5.613281 5.90625 -5.15625 L 5.421875 -4.828125 L 5.3125 -4.828125 C 5.132812 -5.191406 4.90625 -5.453125 4.625 -5.609375 C 4.34375 -5.765625 3.984375 -5.84375 3.546875 -5.84375 C 3.140625 -5.84375 2.78125 -5.75 2.46875 -5.5625 C 2.15625 -5.382812 1.90625 -5.097656 1.71875 -4.703125 C 1.539062 -4.316406 1.453125 -3.820312 1.453125 -3.21875 C 1.453125 -2.601562 1.539062 -2.097656 1.71875 -1.703125 C 1.90625 -1.316406 2.15625 -1.035156 2.46875 -0.859375 C 2.78125 -0.679688 3.140625 -0.59375 3.546875 -0.59375 C 4.015625 -0.59375 4.394531 -0.695312 4.6875 -0.90625 C 4.988281 -1.113281 5.210938 -1.453125 5.359375 -1.921875 L 5.46875 -1.921875 L 5.96875 -1.671875 C 5.8125 -1.097656 5.523438 -0.660156 5.109375 -0.359375 C 4.703125 -0.0546875 4.179688 0.09375 3.546875 0.09375 Z M 3.546875 0.09375 "/></g></g></g><g fill="#000000" fill-opacity="1"><g transform="translate(208.032248, 285.728765)"><g><path d="M 3.53125 0.09375 C 2.96875 0.09375 2.46875 -0.0234375 2.03125 -0.265625 C 1.601562 -0.503906 1.265625 -0.867188 1.015625 -1.359375 C 0.765625 -1.859375 0.640625 -2.476562 0.640625 -3.21875 C 0.640625 -3.945312 0.765625 -4.554688 1.015625 -5.046875 C 1.265625 -5.546875 1.601562 -5.914062 2.03125 -6.15625 C 2.46875 -6.394531 2.96875 -6.515625 3.53125 -6.515625 C 4.082031 -6.515625 4.570312 -6.394531 5 -6.15625 C 5.4375 -5.914062 5.78125 -5.546875 6.03125 -5.046875 C 6.28125 -4.554688 6.40625 -3.945312 6.40625 -3.21875 C 6.40625 -2.476562 6.28125 -1.859375 6.03125 -1.359375 C 5.78125 -0.867188 5.4375 -0.503906 5 -0.265625 C 4.570312 -0.0234375 4.082031 0.09375 3.53125 0.09375 Z M 3.53125 -0.609375 C 4.195312 -0.609375 4.707031 -0.816406 5.0625 -1.234375 C 5.414062 -1.648438 5.59375 -2.3125 5.59375 -3.21875 C 5.59375 -4.113281 5.414062 -4.769531 5.0625 -5.1875 C 4.707031 -5.601562 4.195312 -5.8125 3.53125 -5.8125 C 2.144531 -5.8125 1.453125 -4.945312 1.453125 -3.21875 C 1.453125 -1.476562 2.144531 -0.609375 3.53125 -0.609375 Z M 3.53125 -0.609375 "/></g></g></g><g fill="#000000" fill-opacity="1"><g transform="translate(218.348066, 285.728765)"><g><path d="M 1.671875 0 L 0.96875 0 L 0.96875 -6.421875 L 2.09375 -6.421875 L 4.03125 -0.984375 L 4.125 -0.984375 L 6.078125 -6.421875 L 7.15625 -6.421875 L 7.15625 0 L 6.4375 0 L 6.4375 -5.25 L 6.328125 -5.265625 L 4.4375 0 L 3.6875 0 L 1.78125 -5.265625 L 1.671875 -5.25 Z M 1.671875 0 "/></g></g></g><g fill="#000000" fill-opacity="1"><g transform="translate(229.749333, 285.728765)"><g><path d="M 1.734375 -3.03125 L 1.734375 -0.625 L 5 -0.625 L 5 0 L 0.96875 0 L 0.96875 -6.421875 L 4.9375 -6.421875 L 4.9375 -5.796875 L 1.734375 -5.796875 L 1.734375 -3.65625 L 4.546875 -3.65625 L 4.546875 -3.03125 Z M 1.734375 -3.03125 "/></g></g></g><g fill="#000000" fill-opacity="1"><g transform="translate(238.443569, 285.728765)"><g/></g></g><g fill="#000000" fill-opacity="1"><g transform="translate(243.916614, 285.728765)"><g><path d="M 5.015625 -6.421875 L 5.015625 -5.78125 L 3 -5.78125 L 3 0 L 2.25 0 L 2.25 -5.78125 L 0.234375 -5.78125 L 0.234375 -6.421875 Z M 5.015625 -6.421875 "/></g></g></g><g fill="#000000" fill-opacity="1"><g transform="translate(252.430674, 285.728765)"><g><path d="M 0.96875 0 L 0.96875 -6.421875 L 3.3125 -6.421875 C 3.738281 -6.421875 4.097656 -6.347656 4.390625 -6.203125 C 4.679688 -6.066406 4.898438 -5.867188 5.046875 -5.609375 C 5.191406 -5.347656 5.265625 -5.039062 5.265625 -4.6875 C 5.265625 -4.289062 5.164062 -3.960938 4.96875 -3.703125 C 4.769531 -3.441406 4.457031 -3.25 4.03125 -3.125 L 4.03125 -3.03125 C 4.238281 -2.945312 4.410156 -2.816406 4.546875 -2.640625 C 4.679688 -2.460938 4.800781 -2.203125 4.90625 -1.859375 L 5.5 0 L 4.734375 0 L 4.09375 -1.96875 C 4.007812 -2.195312 3.914062 -2.375 3.8125 -2.5 C 3.71875 -2.632812 3.59375 -2.734375 3.4375 -2.796875 C 3.289062 -2.859375 3.097656 -2.890625 2.859375 -2.890625 L 1.734375 -2.890625 L 1.734375 0 Z M 3.28125 -3.53125 C 3.6875 -3.53125 3.988281 -3.617188 4.1875 -3.796875 C 4.382812 -3.984375 4.484375 -4.269531 4.484375 -4.65625 C 4.484375 -5.03125 4.382812 -5.3125 4.1875 -5.5 C 3.988281 -5.6875 3.6875 -5.78125 3.28125 -5.78125 L 1.734375 -5.78125 L 1.734375 -3.53125 Z M 3.28125 -3.53125 "/></g></g></g><g fill="#000000" fill-opacity="1"><g transform="translate(261.647859, 285.728765)"><g><path d="M 3.3125 0.09375 C 2.519531 0.09375 1.921875 -0.101562 1.515625 -0.5 C 1.117188 -0.90625 0.921875 -1.5 0.921875 -2.28125 L 0.921875 -6.421875 L 1.671875 -6.421875 L 1.671875 -2.296875 C 1.671875 -1.734375 1.804688 -1.3125 2.078125 -1.03125 C 2.347656 -0.75 2.757812 -0.609375 3.3125 -0.609375 C 4.40625 -0.609375 4.953125 -1.171875 4.953125 -2.296875 L 4.953125 -6.421875 L 5.703125 -6.421875 L 5.703125 -2.28125 C 5.703125 -1.5 5.5 -0.90625 5.09375 -0.5 C 4.695312 -0.101562 4.101562 0.09375 3.3125 0.09375 Z M 3.3125 0.09375 "/></g></g></g><g fill="#000000" fill-opacity="1"><g transform="translate(271.537408, 285.728765)"><g><path d="M 1.734375 -3.03125 L 1.734375 -0.625 L 5 -0.625 L 5 0 L 0.96875 0 L 0.96875 -6.421875 L 4.9375 -6.421875 L 4.9375 -5.796875 L 1.734375 -5.796875 L 1.734375 -3.65625 L 4.546875 -3.65625 L 4.546875 -3.03125 Z M 1.734375 -3.03125 "/></g></g></g></svg>